<svg width="330" height="657" viewBox="0 0 330 657" fill="none" xmlns="http://www.w3.org/2000/svg">
<g filter="url(#filter0_b_1537_11361)">
<path d="M164.009 454.26L309.455 535.883L166.271 619.429L20.3244 535.879L164.009 454.26Z" fill="url(#paint0_linear_1537_11361)"/>
<path d="M21.3337 535.88L164.011 454.834L308.448 535.891L166.268 618.851L21.3337 535.88Z" stroke="url(#paint1_linear_1537_11361)" stroke-opacity="0.7"/>
<path d="M309.077 536.513L308.574 572.407L165.795 656.622L166.321 619.029L309.077 536.513Z" fill="url(#paint2_linear_1537_11361)"/>
<path d="M20.3361 572.236L20.3363 535.857L166.263 619.257L165.714 656.463L20.3361 572.236Z" fill="url(#paint3_linear_1537_11361)"/>
</g>
<g filter="url(#filter1_b_1537_11361)">
<path d="M164.009 332.853L309.454 414.476L166.271 498.022L20.3243 414.472L164.009 332.853Z" fill="#2D283E" fill-opacity="0.7"/>
<path d="M21.3336 414.474L164.011 333.428L308.448 414.485L166.268 497.445L21.3336 414.474Z" stroke="#3D3950" stroke-opacity="0.7"/>
<path d="M309.077 415.107L308.574 451.001L165.795 535.216L166.321 497.622L309.077 415.107Z" fill="#2D283E" fill-opacity="0.7"/>
<path d="M20.336 450.83L20.3362 414.451L166.262 497.851L165.714 535.057L20.336 450.83Z" fill="#2D283E" fill-opacity="0.7"/>
</g>
<path d="M45.3192 305.113L63.4932 295L81.035 306.469L63.4932 317.914L45.3192 305.113Z" fill="url(#paint4_linear_1537_11361)"/>
<path d="M63.478 317.878L81.0368 306.469V311.17L63.478 322.579V317.878Z" fill="#706EFF"/>
<path d="M45.3246 305.109L63.4779 317.889V322.709L45.3246 309.811V305.109Z" fill="#5948D9"/>
<path d="M72.2575 319.48L90.4315 309.367L107.973 320.836L90.4315 332.281L72.2575 319.48Z" fill="url(#paint5_linear_1537_11361)"/>
<path d="M90.4163 332.245L107.975 320.836V325.537L90.4163 336.946V332.245Z" fill="#706EFF"/>
<path d="M72.2629 319.477L90.4163 332.256V337.076L72.2629 324.178V319.477Z" fill="#5948D9"/>
<path d="M99.1956 333.949L117.37 323.836L134.911 335.305L117.37 346.75L99.1956 333.949Z" fill="url(#paint6_linear_1537_11361)"/>
<path d="M117.354 346.714L134.913 335.305V340.006L117.354 351.415V346.714Z" fill="#706EFF"/>
<path d="M99.201 333.945L117.354 346.725V351.545L99.201 338.647V333.945Z" fill="#5948D9"/>
<path d="M126.134 349.582L144.308 339.469L161.85 350.937L144.308 362.383L126.134 349.582Z" fill="url(#paint7_linear_1537_11361)"/>
<path d="M144.293 362.347L161.852 350.938V355.639L144.293 367.048V362.347Z" fill="#706EFF"/>
<path d="M126.139 349.578L144.293 362.357V367.177L126.139 354.279V349.578Z" fill="#5948D9"/>
<path d="M176.083 378.418L194.257 368.305L211.799 379.773L194.257 391.219L176.083 378.418Z" fill="url(#paint8_linear_1537_11361)"/>
<path d="M194.242 391.183L211.801 379.773V384.475L194.242 395.884V391.183Z" fill="#706EFF"/>
<path d="M176.089 378.414L194.242 391.193V396.013L176.089 383.115V378.414Z" fill="#5948D9"/>
<path d="M151.537 364.113L169.711 354L187.253 365.469L169.711 376.914L151.537 364.113Z" fill="url(#paint9_linear_1537_11361)"/>
<path d="M169.696 376.878L187.255 365.469V370.17L169.696 381.579V376.878Z" fill="#706EFF"/>
<path d="M151.543 364.109L169.696 376.889V381.709L151.543 368.811V364.109Z" fill="#5948D9"/>
<path d="M21.7335 318.965L39.9075 308.852L57.4493 320.32L39.9075 331.765L21.7335 318.965Z" fill="url(#paint10_linear_1537_11361)"/>
<path d="M39.8922 331.729L57.4511 320.32V325.022L39.8922 336.431V331.729Z" fill="#706EFF"/>
<path d="M21.7389 318.961L39.8922 331.74V336.56L21.7389 323.662V318.961Z" fill="#5948D9"/>
<path d="M48.6721 333.332L66.8461 323.219L84.3878 334.687L66.8461 346.133L48.6721 333.332Z" fill="url(#paint11_linear_1537_11361)"/>
<path d="M66.8308 346.097L84.3897 334.688V339.389L66.8308 350.798V346.097Z" fill="#706EFF"/>
<path d="M48.6774 333.328L66.8307 346.107V350.927L48.6774 338.029V333.328Z" fill="#5948D9"/>
<path d="M75.6101 347.801L93.7841 337.688L111.326 349.156L93.7841 360.601L75.6101 347.801Z" fill="url(#paint12_linear_1537_11361)"/>
<path d="M93.7689 360.565L111.328 349.156V353.857L93.7689 365.267V360.565Z" fill="#706EFF"/>
<path d="M75.6155 347.797L93.7689 360.576V365.396L75.6155 352.498V347.797Z" fill="#5948D9"/>
<path d="M102.548 363.433L120.722 353.32L138.264 364.789L120.722 376.234L102.548 363.433Z" fill="url(#paint13_linear_1537_11361)"/>
<path d="M120.707 376.198L138.266 364.789V369.49L120.707 380.899V376.198Z" fill="#706EFF"/>
<path d="M102.554 363.43L120.707 376.209V381.029L102.554 368.131V363.43Z" fill="#5948D9"/>
<path d="M152.498 392.269L170.672 382.156L188.214 393.625L170.672 405.07L152.498 392.269Z" fill="url(#paint14_linear_1537_11361)"/>
<path d="M170.657 405.034L188.216 393.625V398.326L170.657 409.735V405.034Z" fill="#706EFF"/>
<path d="M152.504 392.266L170.657 405.045V409.865L152.504 396.967V392.266Z" fill="#5948D9"/>
<path d="M127.952 377.973L146.126 367.859L163.668 379.328L146.126 390.773L127.952 377.973Z" fill="url(#paint15_linear_1537_11361)"/>
<path d="M146.111 390.737L163.67 379.328V384.029L146.111 395.438V390.737Z" fill="#706EFF"/>
<path d="M127.957 377.969L146.111 390.748V395.568L127.957 382.67V377.969Z" fill="#5948D9"/>
<path d="M68.5974 291.262L86.7714 281.148L104.313 292.617L86.7714 304.062L68.5974 291.262Z" fill="url(#paint16_linear_1537_11361)"/>
<path d="M86.7561 304.026L104.315 292.617V297.318L86.7561 308.728V304.026Z" fill="#706EFF"/>
<path d="M68.6028 291.258L86.7561 304.037V308.857L68.6028 295.959V291.258Z" fill="#5948D9"/>
<path d="M95.5352 305.629L113.709 295.516L131.251 306.984L113.709 318.429L95.5352 305.629Z" fill="url(#paint17_linear_1537_11361)"/>
<path d="M113.694 318.393L131.253 306.984V311.686L113.694 323.095V318.393Z" fill="#706EFF"/>
<path d="M95.5406 305.625L113.694 318.404V323.224L95.5406 310.326V305.625Z" fill="#5948D9"/>
<path d="M122.474 320.098L140.648 309.984L158.189 321.453L140.648 332.898L122.474 320.098Z" fill="url(#paint18_linear_1537_11361)"/>
<path d="M140.633 332.862L158.191 321.453V326.154L140.633 337.563V332.862Z" fill="#706EFF"/>
<path d="M122.479 320.094L140.633 332.873V337.693L122.479 324.795V320.094Z" fill="#5948D9"/>
<path d="M149.411 335.738L167.585 325.625L185.127 337.094L167.585 348.539L149.411 335.738Z" fill="url(#paint19_linear_1537_11361)"/>
<path d="M167.57 348.503L185.129 337.094V341.795L167.57 353.204V348.503Z" fill="#706EFF"/>
<path d="M149.417 335.734L167.57 348.514V353.334L149.417 340.436V335.734Z" fill="#5948D9"/>
<path d="M199.361 364.574L217.535 354.461L235.077 365.93L217.535 377.375L199.361 364.574Z" fill="url(#paint20_linear_1537_11361)"/>
<path d="M217.52 377.339L235.079 365.93V370.631L217.52 382.04V377.339Z" fill="#706EFF"/>
<path d="M199.367 364.57L217.52 377.35V382.17L199.367 369.272V364.57Z" fill="#5948D9"/>
<path d="M174.816 350.269L192.99 340.156L210.531 351.625L192.99 363.07L174.816 350.269Z" fill="url(#paint21_linear_1537_11361)"/>
<path d="M192.974 363.034L210.533 351.625V356.326L192.974 367.735V363.034Z" fill="#706EFF"/>
<path d="M174.821 350.266L192.974 363.045V367.865L174.821 354.967V350.266Z" fill="#5948D9"/>
<path d="M93.2766 275.019L111.451 264.906L128.992 276.375L111.451 287.82L93.2766 275.019Z" fill="url(#paint22_linear_1537_11361)"/>
<path d="M111.435 287.784L128.994 276.375V281.076L111.435 292.485V287.784Z" fill="#706EFF"/>
<path d="M93.2819 275.016L111.435 287.795V292.615L93.2819 279.717V275.016Z" fill="#5948D9"/>
<path d="M120.215 289.394L138.389 279.281L155.931 290.75L138.389 302.195L120.215 289.394Z" fill="url(#paint23_linear_1537_11361)"/>
<path d="M138.374 302.159L155.933 290.75V295.451L138.374 306.86V302.159Z" fill="#706EFF"/>
<path d="M120.221 289.391L138.374 302.17V306.99L120.221 294.092V289.391Z" fill="#5948D9"/>
<path d="M147.153 303.871L165.327 293.758L182.868 305.226L165.327 316.672L147.153 303.871Z" fill="url(#paint24_linear_1537_11361)"/>
<path d="M165.311 316.636L182.87 305.227V309.928L165.311 321.337V316.636Z" fill="#706EFF"/>
<path d="M147.158 303.867L165.311 316.647V321.467L147.158 308.568V303.867Z" fill="#5948D9"/>
<path d="M174.091 319.504L192.265 309.391L209.807 320.859L192.265 332.304L174.091 319.504Z" fill="url(#paint25_linear_1537_11361)"/>
<path d="M192.25 332.268L209.809 320.859V325.561L192.25 336.97V332.268Z" fill="#706EFF"/>
<path d="M174.097 319.5L192.25 332.279V337.099L174.097 324.201V319.5Z" fill="#5948D9"/>
<path d="M224.041 348.34L242.215 338.227L259.757 349.695L242.215 361.14L224.041 348.34Z" fill="url(#paint26_linear_1537_11361)"/>
<path d="M242.2 361.104L259.759 349.695V354.397L242.2 365.806V361.104Z" fill="#706EFF"/>
<path d="M224.047 348.336L242.2 361.115V365.935L224.047 353.037V348.336Z" fill="#5948D9"/>
<path d="M199.495 334.035L217.669 323.922L235.211 335.39L217.669 346.836L199.495 334.035Z" fill="url(#paint27_linear_1537_11361)"/>
<path d="M217.654 346.8L235.213 335.391V340.092L217.654 351.501V346.8Z" fill="#706EFF"/>
<path d="M199.5 334.031L217.654 346.811V351.631L199.5 338.732V334.031Z" fill="#5948D9"/>
<path d="M117.679 261.168L135.853 251.055L153.395 262.523L135.853 273.969L117.679 261.168Z" fill="url(#paint28_linear_1537_11361)"/>
<path d="M135.838 273.933L153.397 262.523V267.225L135.838 278.634V273.933Z" fill="#706EFF"/>
<path d="M117.684 261.164L135.838 273.943V278.763L117.684 265.865V261.164Z" fill="#5948D9"/>
<path d="M144.617 275.551L162.791 265.438L180.333 276.906L162.791 288.351L144.617 275.551Z" fill="url(#paint29_linear_1537_11361)"/>
<path d="M162.776 288.315L180.335 276.906V281.607L162.776 293.017V288.315Z" fill="#706EFF"/>
<path d="M144.622 275.547L162.776 288.326V293.146L144.622 280.248V275.547Z" fill="#5948D9"/>
<path d="M171.555 290.019L189.729 279.906L207.271 291.375L189.729 302.82L171.555 290.019Z" fill="url(#paint30_linear_1537_11361)"/>
<path d="M189.714 302.784L207.273 291.375V296.076L189.714 307.485V302.784Z" fill="#706EFF"/>
<path d="M171.561 290.016L189.714 302.795V307.615L171.561 294.717V290.016Z" fill="#5948D9"/>
<path d="M198.493 305.652L216.667 295.539L234.209 307.008L216.667 318.453L198.493 305.652Z" fill="url(#paint31_linear_1537_11361)"/>
<path d="M216.652 318.417L234.211 307.008V311.709L216.652 323.118V318.417Z" fill="#706EFF"/>
<path d="M198.499 305.648L216.652 318.428V323.248L198.499 310.35V305.648Z" fill="#5948D9"/>
<path d="M248.443 334.48L266.617 324.367L284.159 335.836L266.617 347.281L248.443 334.48Z" fill="url(#paint32_linear_1537_11361)"/>
<path d="M266.602 347.245L284.16 335.836V340.537L266.602 351.946V347.245Z" fill="#706EFF"/>
<path d="M248.448 334.477L266.602 347.256V352.076L248.448 339.178V334.477Z" fill="#5948D9"/>
<path d="M223.897 320.183L242.071 310.07L259.613 321.539L242.071 332.984L223.897 320.183Z" fill="url(#paint33_linear_1537_11361)"/>
<path d="M242.056 332.948L259.615 321.539V326.24L242.056 337.649V332.948Z" fill="#706EFF"/>
<path d="M223.903 320.18L242.056 332.959V337.779L223.903 324.881V320.18Z" fill="#5948D9"/>
<path d="M140.694 244.926L158.868 234.812L176.41 246.281L158.868 257.726L140.694 244.926Z" fill="url(#paint34_linear_1537_11361)"/>
<path d="M158.853 257.69L176.412 246.281V250.982L158.853 262.392V257.69Z" fill="#706EFF"/>
<path d="M140.7 244.922L158.853 257.701V262.521L140.7 249.623V244.922Z" fill="#5948D9"/>
<path d="M167.633 259.293L185.807 249.18L203.348 260.648L185.807 272.094L167.633 259.293Z" fill="url(#paint35_linear_1537_11361)"/>
<path d="M185.792 272.058L203.35 260.648V265.35L185.792 276.759V272.058Z" fill="#706EFF"/>
<path d="M167.638 259.289L185.791 272.068V276.888L167.638 263.99V259.289Z" fill="#5948D9"/>
<path d="M194.571 273.762L212.745 263.648L230.287 275.117L212.745 286.562L194.571 273.762Z" fill="url(#paint36_linear_1537_11361)"/>
<path d="M212.729 286.526L230.288 275.117V279.818L212.729 291.228V286.526Z" fill="#706EFF"/>
<path d="M194.576 273.758L212.729 286.537V291.357L194.576 278.459V273.758Z" fill="#5948D9"/>
<path d="M221.509 289.394L239.683 279.281L257.225 290.75L239.683 302.195L221.509 289.394Z" fill="url(#paint37_linear_1537_11361)"/>
<path d="M239.668 302.159L257.227 290.75V295.451L239.668 306.86V302.159Z" fill="#706EFF"/>
<path d="M221.515 289.391L239.668 302.17V306.99L221.515 294.092V289.391Z" fill="#5948D9"/>
<path d="M271.459 318.23L289.633 308.117L307.174 319.586L289.633 331.031L271.459 318.23Z" fill="url(#paint38_linear_1537_11361)"/>
<path d="M289.617 330.995L307.176 319.586V324.287L289.617 335.696V330.995Z" fill="#706EFF"/>
<path d="M271.464 318.227L289.617 331.006V335.826L271.464 322.928V318.227Z" fill="#5948D9"/>
<path d="M246.913 303.926L265.087 293.812L282.629 305.281L265.087 316.726L246.913 303.926Z" fill="url(#paint39_linear_1537_11361)"/>
<path d="M265.072 316.69L282.631 305.281V309.982L265.072 321.392V316.69Z" fill="#706EFF"/>
<path d="M246.918 303.922L265.072 316.701V321.521L246.918 308.623V303.922Z" fill="#5948D9"/>
<g filter="url(#filter2_b_1537_11361)">
<path d="M164.009 114.596L309.454 196.218L166.271 279.764L20.3243 196.215L164.009 114.596Z" fill="#2D283E" fill-opacity="0.7"/>
<path d="M21.3336 196.216L164.011 115.17L308.448 196.227L166.268 279.187L21.3336 196.216Z" stroke="#3D3950" stroke-opacity="0.7"/>
<path d="M309.077 196.849L308.574 232.743L165.795 316.958L166.321 279.365L309.077 196.849Z" fill="#2D283E" fill-opacity="0.7"/>
<path d="M20.336 232.572L20.3362 196.193L166.262 279.593L165.714 316.799L20.336 232.572Z" fill="#2D283E" fill-opacity="0.7"/>
</g>
<path d="M171.92 0.982514L207.106 23.693L171.92 47.8865L133.648 23.6929L171.92 0.982514Z" fill="url(#paint40_linear_1537_11361)"/>
<path d="M171.88 47.8476L207.104 23.6875V35.6705L171.88 59.8306V47.8476Z" fill="#7467FF"/>
<path d="M133.654 23.7188L171.88 47.8464V59.8481L133.654 35.622V23.7188Z" fill="url(#paint41_linear_1537_11361)"/>
<path d="M222.79 30.3106L257.977 53.0211L222.79 77.2146L184.519 53.021L222.79 30.3106Z" fill="url(#paint42_linear_1537_11361)"/>
<path d="M222.75 77.1757L257.975 53.0156V64.9986L222.75 89.1587V77.1757Z" fill="#7467FF"/>
<path d="M184.525 53.0469L222.751 77.1745V89.1763L184.525 64.9501V53.0469Z" fill="#5566D7"/>
<path d="M278.634 66.0606L313.821 88.7711L278.634 112.965L240.363 88.771L278.634 66.0606Z" fill="url(#paint43_linear_1537_11361)"/>
<path d="M278.595 112.926L313.819 88.7656V100.749L278.595 124.909V112.926Z" fill="#7467FF"/>
<path d="M240.369 88.7969L278.595 112.925V124.926L240.369 100.7V88.7969Z" fill="#5566D7"/>
<path d="M117.58 30.3106L152.767 53.0211L117.58 77.2146L79.3088 53.021L117.58 30.3106Z" fill="url(#paint44_linear_1537_11361)"/>
<path d="M117.541 77.1757L152.765 53.0156V64.9986L117.541 89.1587V77.1757Z" fill="#7467FF"/>
<path d="M79.3147 53.0469L117.541 77.1745V89.1763L79.3147 64.9501V53.0469Z" fill="url(#paint45_linear_1537_11361)"/>
<path d="M168.451 59.6544L203.638 82.3649L168.451 106.558L130.18 82.3648L168.451 59.6544Z" fill="url(#paint46_linear_1537_11361)"/>
<path d="M168.411 106.519L203.636 82.3594V94.3424L168.411 118.502V106.519Z" fill="#7467FF"/>
<path d="M130.186 82.3906L168.412 106.518V118.52L130.186 94.2939V82.3906Z" fill="#5566D7"/>
<path d="M224.295 95.3966L259.482 118.107L224.295 142.301L186.024 118.107L224.295 95.3966Z" fill="url(#paint47_linear_1537_11361)"/>
<path d="M224.255 142.262L259.48 118.102V130.085L224.255 154.245V142.262Z" fill="#7467FF"/>
<path d="M186.03 118.133L224.256 142.26V154.262L186.03 130.036V118.133Z" fill="#5566D7"/>
<path d="M63.2411 59.6544L98.4276 82.3649L63.2411 106.558L24.9697 82.3648L63.2411 59.6544Z" fill="url(#paint48_linear_1537_11361)"/>
<path d="M63.2015 106.519L98.426 82.3594V94.3424L63.2015 118.502V106.519Z" fill="#5D65FB"/>
<path d="M24.9756 82.3906L63.2016 106.518V118.52L24.9756 94.2939V82.3906Z" fill="url(#paint49_linear_1537_11361)"/>
<path d="M114.111 88.9825L149.298 111.693L114.111 135.886L75.8401 111.693L114.111 88.9825Z" fill="url(#paint50_linear_1537_11361)"/>
<path d="M114.072 135.848L149.296 111.688V123.67L114.072 147.831V135.848Z" fill="#7467FF"/>
<path d="M75.8459 111.719L114.072 135.846V147.848L75.8459 123.622V111.719Z" fill="url(#paint51_linear_1537_11361)"/>
<path d="M169.956 124.725L205.142 147.435L169.956 171.629L131.685 147.435L169.956 124.725Z" fill="url(#paint52_linear_1537_11361)"/>
<path d="M169.916 171.59L205.141 147.43V159.413L169.916 183.573V171.59Z" fill="#7467FF"/>
<path d="M131.69 147.461L169.916 171.589V183.59L131.69 159.364V147.461Z" fill="#5566D7"/>
<defs>
<filter id="filter0_b_1537_11361" x="2.1244" y="436.058" width="325.53" height="238.767" filterUnits="userSpaceOnUse" color-interpolation-filters="sRGB">
<feFlood flood-opacity="0" result="BackgroundImageFix"/>
<feGaussianBlur in="BackgroundImageFix" stdDeviation="9.1"/>
<feComposite in2="SourceAlpha" operator="in" result="effect1_backgroundBlur_1537_11361"/>
<feBlend mode="normal" in="SourceGraphic" in2="effect1_backgroundBlur_1537_11361" result="shape"/>
</filter>
<filter id="filter1_b_1537_11361" x="2.12428" y="314.652" width="325.53" height="238.767" filterUnits="userSpaceOnUse" color-interpolation-filters="sRGB">
<feFlood flood-opacity="0" result="BackgroundImageFix"/>
<feGaussianBlur in="BackgroundImageFix" stdDeviation="9.1"/>
<feComposite in2="SourceAlpha" operator="in" result="effect1_backgroundBlur_1537_11361"/>
<feBlend mode="normal" in="SourceGraphic" in2="effect1_backgroundBlur_1537_11361" result="shape"/>
</filter>
<filter id="filter2_b_1537_11361" x="2.12428" y="96.3937" width="325.53" height="238.767" filterUnits="userSpaceOnUse" color-interpolation-filters="sRGB">
<feFlood flood-opacity="0" result="BackgroundImageFix"/>
<feGaussianBlur in="BackgroundImageFix" stdDeviation="9.1"/>
<feComposite in2="SourceAlpha" operator="in" result="effect1_backgroundBlur_1537_11361"/>
<feBlend mode="normal" in="SourceGraphic" in2="effect1_backgroundBlur_1537_11361" result="shape"/>
</filter>
<linearGradient id="paint0_linear_1537_11361" x1="278.253" y1="535.881" x2="44.6246" y2="535.881" gradientUnits="userSpaceOnUse">
<stop stop-color="#8183BF"/>
<stop offset="1" stop-color="#4749B8"/>
</linearGradient>
<linearGradient id="paint1_linear_1537_11361" x1="45.1045" y1="535.881" x2="309.455" y2="535.881" gradientUnits="userSpaceOnUse">
<stop stop-color="#484ABB"/>
<stop offset="1" stop-color="#8689BE"/>
</linearGradient>
<linearGradient id="paint2_linear_1537_11361" x1="309.552" y1="556.625" x2="168.704" y2="631.52" gradientUnits="userSpaceOnUse">
<stop stop-color="#4544BB"/>
<stop offset="1" stop-color="#4A4AB8"/>
</linearGradient>
<linearGradient id="paint3_linear_1537_11361" x1="22.2677" y1="558.861" x2="161.997" y2="633.756" gradientUnits="userSpaceOnUse">
<stop stop-color="#32315E"/>
<stop offset="1" stop-color="#42419F"/>
</linearGradient>
<linearGradient id="paint4_linear_1537_11361" x1="63.1771" y1="295" x2="63.1771" y2="317.914" gradientUnits="userSpaceOnUse">
<stop stop-color="#6E5CF7"/>
<stop offset="1" stop-color="#6B64F1"/>
</linearGradient>
<linearGradient id="paint5_linear_1537_11361" x1="90.1154" y1="309.367" x2="90.1154" y2="332.281" gradientUnits="userSpaceOnUse">
<stop stop-color="#6E5CF7"/>
<stop offset="1" stop-color="#6B64F1"/>
</linearGradient>
<linearGradient id="paint6_linear_1537_11361" x1="117.053" y1="323.836" x2="117.053" y2="346.75" gradientUnits="userSpaceOnUse">
<stop stop-color="#6E5CF7"/>
<stop offset="1" stop-color="#6B64F1"/>
</linearGradient>
<linearGradient id="paint7_linear_1537_11361" x1="143.992" y1="339.469" x2="143.992" y2="362.383" gradientUnits="userSpaceOnUse">
<stop stop-color="#6E5CF7"/>
<stop offset="1" stop-color="#6B64F1"/>
</linearGradient>
<linearGradient id="paint8_linear_1537_11361" x1="193.941" y1="368.305" x2="193.941" y2="391.219" gradientUnits="userSpaceOnUse">
<stop stop-color="#6E5CF7"/>
<stop offset="1" stop-color="#6B64F1"/>
</linearGradient>
<linearGradient id="paint9_linear_1537_11361" x1="169.395" y1="354" x2="169.395" y2="376.914" gradientUnits="userSpaceOnUse">
<stop stop-color="#6E5CF7"/>
<stop offset="1" stop-color="#6B64F1"/>
</linearGradient>
<linearGradient id="paint10_linear_1537_11361" x1="39.5914" y1="308.852" x2="39.5914" y2="331.765" gradientUnits="userSpaceOnUse">
<stop stop-color="#6E5CF7"/>
<stop offset="1" stop-color="#6B64F1"/>
</linearGradient>
<linearGradient id="paint11_linear_1537_11361" x1="66.5299" y1="323.219" x2="66.5299" y2="346.133" gradientUnits="userSpaceOnUse">
<stop stop-color="#6E5CF7"/>
<stop offset="1" stop-color="#6B64F1"/>
</linearGradient>
<linearGradient id="paint12_linear_1537_11361" x1="93.468" y1="337.688" x2="93.468" y2="360.601" gradientUnits="userSpaceOnUse">
<stop stop-color="#6E5CF7"/>
<stop offset="1" stop-color="#6B64F1"/>
</linearGradient>
<linearGradient id="paint13_linear_1537_11361" x1="120.406" y1="353.32" x2="120.406" y2="376.234" gradientUnits="userSpaceOnUse">
<stop stop-color="#6E5CF7"/>
<stop offset="1" stop-color="#6B64F1"/>
</linearGradient>
<linearGradient id="paint14_linear_1537_11361" x1="170.356" y1="382.156" x2="170.356" y2="405.07" gradientUnits="userSpaceOnUse">
<stop stop-color="#6E5CF7"/>
<stop offset="1" stop-color="#6B64F1"/>
</linearGradient>
<linearGradient id="paint15_linear_1537_11361" x1="145.81" y1="367.859" x2="145.81" y2="390.773" gradientUnits="userSpaceOnUse">
<stop stop-color="#6E5CF7"/>
<stop offset="1" stop-color="#6B64F1"/>
</linearGradient>
<linearGradient id="paint16_linear_1537_11361" x1="86.4552" y1="281.148" x2="86.4552" y2="304.062" gradientUnits="userSpaceOnUse">
<stop stop-color="#6E5CF7"/>
<stop offset="1" stop-color="#6B64F1"/>
</linearGradient>
<linearGradient id="paint17_linear_1537_11361" x1="113.393" y1="295.516" x2="113.393" y2="318.429" gradientUnits="userSpaceOnUse">
<stop stop-color="#6E5CF7"/>
<stop offset="1" stop-color="#6B64F1"/>
</linearGradient>
<linearGradient id="paint18_linear_1537_11361" x1="140.332" y1="309.984" x2="140.332" y2="332.898" gradientUnits="userSpaceOnUse">
<stop stop-color="#6E5CF7"/>
<stop offset="1" stop-color="#6B64F1"/>
</linearGradient>
<linearGradient id="paint19_linear_1537_11361" x1="167.269" y1="325.625" x2="167.269" y2="348.539" gradientUnits="userSpaceOnUse">
<stop stop-color="#6E5CF7"/>
<stop offset="1" stop-color="#6B64F1"/>
</linearGradient>
<linearGradient id="paint20_linear_1537_11361" x1="204.426" y1="365.918" x2="228.863" y2="365.918" gradientUnits="userSpaceOnUse">
<stop stop-color="#6E5CF7"/>
<stop offset="1" stop-color="#7060EA"/>
</linearGradient>
<linearGradient id="paint21_linear_1537_11361" x1="204.385" y1="351.613" x2="176.712" y2="358.936" gradientUnits="userSpaceOnUse">
<stop stop-color="#5D60F4"/>
<stop offset="1" stop-color="#646DF1"/>
</linearGradient>
<linearGradient id="paint22_linear_1537_11361" x1="111.134" y1="264.906" x2="111.134" y2="287.82" gradientUnits="userSpaceOnUse">
<stop stop-color="#6E5CF7"/>
<stop offset="1" stop-color="#6B64F1"/>
</linearGradient>
<linearGradient id="paint23_linear_1537_11361" x1="138.073" y1="279.281" x2="138.073" y2="302.195" gradientUnits="userSpaceOnUse">
<stop stop-color="#6E5CF7"/>
<stop offset="1" stop-color="#6B64F1"/>
</linearGradient>
<linearGradient id="paint24_linear_1537_11361" x1="165.011" y1="293.758" x2="165.011" y2="316.672" gradientUnits="userSpaceOnUse">
<stop stop-color="#6E5CF7"/>
<stop offset="1" stop-color="#6B64F1"/>
</linearGradient>
<linearGradient id="paint25_linear_1537_11361" x1="175.517" y1="320.848" x2="207.965" y2="320.848" gradientUnits="userSpaceOnUse">
<stop stop-color="#5D67F4"/>
<stop offset="1" stop-color="#6B64F1"/>
</linearGradient>
<linearGradient id="paint26_linear_1537_11361" x1="225.945" y1="353.636" x2="254.394" y2="352.542" gradientUnits="userSpaceOnUse">
<stop stop-color="#5C6CF7"/>
<stop offset="1" stop-color="#6260E9"/>
</linearGradient>
<linearGradient id="paint27_linear_1537_11361" x1="203.332" y1="335.379" x2="229.957" y2="335.379" gradientUnits="userSpaceOnUse">
<stop stop-color="#5C6CF7"/>
<stop offset="1" stop-color="#855EF0"/>
</linearGradient>
<linearGradient id="paint28_linear_1537_11361" x1="135.537" y1="251.055" x2="135.537" y2="273.969" gradientUnits="userSpaceOnUse">
<stop stop-color="#6E5CF7"/>
<stop offset="1" stop-color="#6B64F1"/>
</linearGradient>
<linearGradient id="paint29_linear_1537_11361" x1="162.475" y1="265.438" x2="162.475" y2="288.351" gradientUnits="userSpaceOnUse">
<stop stop-color="#6E5CF7"/>
<stop offset="1" stop-color="#6B64F1"/>
</linearGradient>
<linearGradient id="paint30_linear_1537_11361" x1="189.413" y1="279.906" x2="189.413" y2="302.82" gradientUnits="userSpaceOnUse">
<stop stop-color="#6E5CF7"/>
<stop offset="1" stop-color="#6B64F1"/>
</linearGradient>
<linearGradient id="paint31_linear_1537_11361" x1="226.671" y1="306.996" x2="199.999" y2="306.996" gradientUnits="userSpaceOnUse">
<stop stop-color="#655EF1"/>
<stop offset="1" stop-color="#646BF1"/>
</linearGradient>
<linearGradient id="paint32_linear_1537_11361" x1="251.026" y1="335.824" x2="279.935" y2="334.003" gradientUnits="userSpaceOnUse">
<stop stop-color="#645CF7"/>
<stop offset="1" stop-color="#7060E7"/>
</linearGradient>
<linearGradient id="paint33_linear_1537_11361" x1="228.22" y1="319.869" x2="256.486" y2="321.527" gradientUnits="userSpaceOnUse">
<stop stop-color="#695CF7"/>
<stop offset="1" stop-color="#5F66EC"/>
</linearGradient>
<linearGradient id="paint34_linear_1537_11361" x1="158.552" y1="234.812" x2="158.552" y2="257.726" gradientUnits="userSpaceOnUse">
<stop stop-color="#6E5CF7"/>
<stop offset="1" stop-color="#6B64F1"/>
</linearGradient>
<linearGradient id="paint35_linear_1537_11361" x1="185.491" y1="249.18" x2="185.491" y2="272.094" gradientUnits="userSpaceOnUse">
<stop stop-color="#6E5CF7"/>
<stop offset="1" stop-color="#6B64F1"/>
</linearGradient>
<linearGradient id="paint36_linear_1537_11361" x1="225.736" y1="275.105" x2="187.482" y2="271.675" gradientUnits="userSpaceOnUse">
<stop stop-color="#6E62F1"/>
<stop offset="1" stop-color="#7C64F1"/>
</linearGradient>
<linearGradient id="paint37_linear_1537_11361" x1="254.512" y1="290.738" x2="209.953" y2="290.738" gradientUnits="userSpaceOnUse">
<stop stop-color="#5E60F1"/>
<stop offset="1" stop-color="#647CF1"/>
</linearGradient>
<linearGradient id="paint38_linear_1537_11361" x1="303.704" y1="319.574" x2="278.971" y2="317.3" gradientUnits="userSpaceOnUse">
<stop stop-color="#6167DE"/>
<stop offset="1" stop-color="#765EF0"/>
</linearGradient>
<linearGradient id="paint39_linear_1537_11361" x1="276.08" y1="305.269" x2="229.184" y2="305.269" gradientUnits="userSpaceOnUse">
<stop stop-color="#6660DC"/>
<stop offset="1" stop-color="#7464F1"/>
</linearGradient>
<linearGradient id="paint40_linear_1537_11361" x1="157.04" y1="6.03005" x2="170.377" y2="47.1441" gradientUnits="userSpaceOnUse">
<stop stop-color="#5974DE"/>
<stop offset="1" stop-color="#5D5BED"/>
</linearGradient>
<linearGradient id="paint41_linear_1537_11361" x1="152.767" y1="23.7187" x2="152.767" y2="59.8481" gradientUnits="userSpaceOnUse">
<stop stop-color="#5562D7"/>
<stop offset="1" stop-color="#2D3471"/>
</linearGradient>
<linearGradient id="paint42_linear_1537_11361" x1="207.911" y1="35.3582" x2="221.248" y2="76.4722" gradientUnits="userSpaceOnUse">
<stop stop-color="#5974DE"/>
<stop offset="1" stop-color="#5D5BED"/>
</linearGradient>
<linearGradient id="paint43_linear_1537_11361" x1="263.755" y1="71.1082" x2="277.092" y2="112.222" gradientUnits="userSpaceOnUse">
<stop stop-color="#5974DE"/>
<stop offset="1" stop-color="#5D5BED"/>
</linearGradient>
<linearGradient id="paint44_linear_1537_11361" x1="102.701" y1="35.3582" x2="116.038" y2="76.4722" gradientUnits="userSpaceOnUse">
<stop stop-color="#6B5BE1"/>
<stop offset="1" stop-color="#5759EB"/>
</linearGradient>
<linearGradient id="paint45_linear_1537_11361" x1="98.4277" y1="64.5931" x2="93.5875" y2="71.1116" gradientUnits="userSpaceOnUse">
<stop stop-color="#4557CF"/>
<stop offset="1" stop-color="#6453C5"/>
</linearGradient>
<linearGradient id="paint46_linear_1537_11361" x1="153.572" y1="64.7019" x2="166.909" y2="105.816" gradientUnits="userSpaceOnUse">
<stop stop-color="#5974DE"/>
<stop offset="1" stop-color="#5D5BED"/>
</linearGradient>
<linearGradient id="paint47_linear_1537_11361" x1="209.416" y1="100.444" x2="222.753" y2="141.558" gradientUnits="userSpaceOnUse">
<stop stop-color="#5974DE"/>
<stop offset="1" stop-color="#5D5BED"/>
</linearGradient>
<linearGradient id="paint48_linear_1537_11361" x1="48.3617" y1="64.7019" x2="61.6986" y2="105.816" gradientUnits="userSpaceOnUse">
<stop stop-color="#5759E6"/>
<stop offset="1" stop-color="#5A5DF3"/>
</linearGradient>
<linearGradient id="paint49_linear_1537_11361" x1="42.3142" y1="107.259" x2="44.0886" y2="93.4817" gradientUnits="userSpaceOnUse">
<stop stop-color="#4143CD"/>
<stop offset="1" stop-color="#4956A8"/>
</linearGradient>
<linearGradient id="paint50_linear_1537_11361" x1="88.6513" y1="117.482" x2="149.298" y2="111.693" gradientUnits="userSpaceOnUse">
<stop stop-color="#5C5FFA"/>
<stop offset="1" stop-color="#5856E3"/>
</linearGradient>
<linearGradient id="paint51_linear_1537_11361" x1="94.959" y1="123.158" x2="90.0161" y2="130.841" gradientUnits="userSpaceOnUse">
<stop stop-color="#435ECC"/>
<stop offset="1" stop-color="#585DBF"/>
</linearGradient>
<linearGradient id="paint52_linear_1537_11361" x1="143.223" y1="147.435" x2="198.005" y2="150.363" gradientUnits="userSpaceOnUse">
<stop stop-color="#6C5CE5"/>
<stop offset="1" stop-color="#5973F3"/>
</linearGradient>
</defs>
</svg>
